<?xml version="1.0" encoding="utf-8"?>
<!-- Generator: Adobe Illustrator 24.2.3, SVG Export Plug-In . SVG Version: 6.00 Build 0)  -->
<svg version="1.1" id="Layer_1" xmlns="http://www.w3.org/2000/svg" xmlns:xlink="http://www.w3.org/1999/xlink" x="0px" y="0px"
	 viewBox="0 0 300.594 59.197" enable-background="new 0 0 300.594 59.197" xml:space="preserve">
<path fill="#CC4C6E" d="M35.581,59.053L35.581,59.053c-4.901,0.833-9.55-2.465-10.382-7.367l-6.993-41.16
	c-0.833-4.901,2.465-9.55,7.367-10.382l0,0c4.901-0.833,9.55,2.465,10.382,7.367l6.993,41.16
	C43.78,53.572,40.482,58.22,35.581,59.053z"/>
<path fill="#CC4C6E" d="M60.655,59.053L60.655,59.053c-4.901,0.833-9.55-2.465-10.382-7.367l-6.993-41.16
	c-0.833-4.901,2.465-9.55,7.367-10.382l0,0c4.901-0.833,9.55,2.465,10.382,7.367l6.993,41.16
	C68.854,53.572,65.556,58.22,60.655,59.053z"/>
<path fill="#F3B541" d="M5.375,58.431L5.375,58.431c-4.55-2.004-6.613-7.317-4.609-11.867L18.911,5.375
	c2.004-4.55,7.317-6.613,11.867-4.609l0,0c4.55,2.004,6.613,7.317,4.609,11.867L17.242,53.822
	C15.238,58.372,9.925,60.435,5.375,58.431z"/>
<path fill="#4CB3AA" d="M30.385,58.431L30.385,58.431c-4.55-2.004-6.613-7.317-4.609-11.867L43.921,5.375
	c2.004-4.55,7.317-6.613,11.867-4.609l0,0c4.55,2.004,6.613,7.317,4.609,11.867L42.252,53.822
	C40.247,58.372,34.934,60.435,30.385,58.431z"/>
<path fill="#842C68" d="M55.435,58.431L55.435,58.431c-4.55-2.004-6.613-7.317-4.609-11.867L68.971,5.375
	c2.004-4.55,7.317-6.613,11.867-4.609l0,0c4.55,2.004,6.613,7.317,4.609,11.867L67.301,53.822
	C65.297,58.372,59.984,60.435,55.435,58.431z"/>
<g>
	<path fill="#F9F9FA" d="M101.407,18.55c0.037-0.372,0.261-0.596,0.634-0.596h0.447c0.373,0,0.596,0.148,0.746,0.484l7.381,15.917
		c0.596,1.268,1.267,2.945,1.267,2.945h0.075c0,0,0.671-1.678,1.268-2.945l7.381-15.917c0.149-0.336,0.373-0.484,0.746-0.484h0.447
		c0.373,0,0.596,0.224,0.634,0.596l2.013,24.827c0,0.447-0.187,0.671-0.634,0.671h-0.335c-0.373,0-0.596-0.224-0.634-0.597
		l-1.565-19.31c-0.112-1.268-0.112-3.467-0.112-3.467h-0.075c0,0-0.746,2.199-1.342,3.467l-6.785,14.39
		c-0.149,0.335-0.373,0.484-0.746,0.484h-0.596c-0.373,0-0.597-0.149-0.746-0.484l-6.747-14.39
		c-0.559-1.229-1.379-3.541-1.379-3.541h-0.075c0,0,0,2.273-0.112,3.541l-1.565,19.31c-0.037,0.373-0.261,0.597-0.634,0.597h-0.335
		c-0.447,0-0.634-0.224-0.634-0.671L101.407,18.55z"/>
	<path fill="#F9F9FA" d="M137.487,18.476c0.112-0.373,0.373-0.521,0.708-0.521h0.671c0.335,0,0.596,0.148,0.708,0.521l9.319,24.827
		c0.149,0.447-0.037,0.745-0.521,0.745h-0.41c-0.335,0-0.597-0.149-0.708-0.484l-3.206-8.537h-11.071l-3.169,8.5
		c-0.112,0.372-0.373,0.521-0.708,0.521h-0.41c-0.484,0-0.671-0.298-0.522-0.745L137.487,18.476z M143.489,33.536l-3.952-10.587
		c-0.41-1.118-0.969-3.132-0.969-3.132h-0.075c0,0-0.559,2.014-0.969,3.132l-3.988,10.587H143.489z"/>
	<path fill="#F9F9FA" d="M157.391,32.716l-8.425-14.017c-0.261-0.41-0.074-0.745,0.447-0.745h0.448c0.335,0,0.559,0.148,0.745,0.41
		l5.927,9.878c0.746,1.268,1.603,2.945,1.603,2.945h0.074c0,0,0.82-1.678,1.603-2.945l5.927-9.878c0.187-0.262,0.41-0.41,0.746-0.41
		h0.447c0.521,0,0.708,0.335,0.447,0.745l-8.387,14.017v10.698c0,0.41-0.224,0.634-0.634,0.634h-0.335
		c-0.41,0-0.634-0.224-0.634-0.634V32.716z"/>
	<path fill="#F9F9FA" d="M172.187,18.588c0-0.41,0.224-0.634,0.634-0.634h0.373c0.335,0,0.56,0.111,0.783,0.41l14.575,20.055
		c0.857,1.193,2.125,3.28,2.125,3.28h0.074c0,0-0.187-1.976-0.187-3.28V18.588c0-0.41,0.224-0.634,0.634-0.634h0.335
		c0.41,0,0.634,0.224,0.634,0.634v24.826c0,0.41-0.224,0.634-0.634,0.634h-0.372c-0.336,0-0.56-0.112-0.783-0.41l-14.575-20.055
		c-0.857-1.193-2.125-3.28-2.125-3.28h-0.074c0,0,0.187,1.976,0.187,3.28v19.831c0,0.41-0.224,0.634-0.634,0.634h-0.336
		c-0.41,0-0.634-0.224-0.634-0.634V18.588z"/>
	<path fill="#F9F9FA" d="M211.325,17.507c7.493,0,13.196,5.814,13.196,13.308c0,7.679-5.703,13.681-13.196,13.681
		s-13.196-6.002-13.196-13.681C198.128,23.321,203.831,17.507,211.325,17.507z M211.325,42.967c6.598,0,11.519-5.293,11.519-12.152
		c0-6.673-4.921-11.779-11.519-11.779s-11.519,5.106-11.519,11.779C199.806,37.674,204.727,42.967,211.325,42.967z"/>
	<path fill="#F9F9FA" d="M241.814,17.507c7.492,0,13.195,5.814,13.195,13.308c0,7.679-5.703,13.681-13.195,13.681
		c-7.493,0-13.196-6.002-13.196-13.681C228.618,23.321,234.321,17.507,241.814,17.507z M241.814,42.967
		c6.598,0,11.519-5.293,11.519-12.152c0-6.673-4.921-11.779-11.519-11.779c-6.599,0-11.52,5.106-11.52,11.779
		C230.294,37.674,235.215,42.967,241.814,42.967z"/>
	<path fill="#F9F9FA" d="M265.369,19.445h-9.096c-0.41,0-0.634-0.224-0.634-0.634v-0.224c0-0.41,0.224-0.634,0.634-0.634h19.794
		c0.41,0,0.634,0.224,0.634,0.634v0.224c0,0.41-0.224,0.634-0.634,0.634h-9.095v23.969c0,0.41-0.225,0.634-0.634,0.634h-0.336
		c-0.41,0-0.634-0.224-0.634-0.634V19.445z"/>
	<path fill="#F9F9FA" d="M280.837,18.588c0-0.41,0.224-0.634,0.634-0.634h0.335c0.41,0,0.634,0.224,0.634,0.634v11.63h16.551v-11.63
		c0-0.41,0.225-0.634,0.634-0.634h0.336c0.41,0,0.634,0.224,0.634,0.634v24.826c0,0.41-0.224,0.634-0.634,0.634h-0.336
		c-0.409,0-0.634-0.224-0.634-0.634V31.709H282.44v11.705c0,0.41-0.224,0.634-0.634,0.634h-0.335c-0.41,0-0.634-0.224-0.634-0.634
		V18.588z"/>
</g>
</svg>
